<svg width="356" height="730" viewBox="0 0 356 730" fill="none" xmlns="http://www.w3.org/2000/svg">
<g clip-path="url(#clip0_3213_27)">
<path d="M354.916 235.297H349.595C349.132 235.297 348.759 235.67 348.759 236.133V321.777C348.759 322.24 349.131 322.612 349.595 322.612H354.916C355.379 322.612 355.752 322.24 355.752 321.777V236.133C355.752 235.67 355.379 235.297 354.916 235.297Z" fill="#6A5F56"/>
<path d="M354.963 235.622H349.547C349.11 235.622 348.759 235.975 348.759 236.412V321.497C348.759 321.934 349.11 322.287 349.547 322.287H354.963C355.4 322.287 355.752 321.934 355.752 321.497V236.412C355.752 235.975 355.4 235.622 354.963 235.622Z" fill="url(#paint0_linear_3213_27)"/>
<path d="M6.40566 198.324H1.0843C0.621311 198.324 0.248535 198.696 0.248535 199.159V250.085C0.248535 250.548 0.621198 250.921 1.0843 250.921H6.40566C6.86866 250.921 7.24143 250.548 7.24143 250.085V199.159C7.24143 198.696 6.86877 198.324 6.40566 198.324Z" fill="#6A5F56"/>
<path d="M6.45301 198.649H1.03701C0.600175 198.649 0.248535 199.001 0.248535 199.439V249.806C0.248535 250.244 0.600024 250.596 1.03701 250.596H6.45301C6.88981 250.596 7.24143 250.244 7.24143 249.806V199.439C7.24143 199.001 6.88996 198.649 6.45301 198.649Z" fill="url(#paint1_linear_3213_27)"/>
<path d="M6.40566 141.841H1.0843C0.621311 141.841 0.248535 142.214 0.248535 142.677V172.302C0.248535 172.765 0.621198 173.138 1.0843 173.138H6.40566C6.86866 173.138 7.24143 172.765 7.24143 172.302V142.677C7.24143 142.214 6.86877 141.841 6.40566 141.841Z" fill="#6A5F56"/>
<path d="M6.45301 142.166H1.03701C0.600175 142.166 0.248535 142.518 0.248535 142.956V172.023C0.248535 172.461 0.600024 172.813 1.03701 172.813H6.45301C6.88981 172.813 7.24143 172.461 7.24143 172.023V142.956C7.24143 142.518 6.88996 142.166 6.45301 142.166Z" fill="url(#paint2_linear_3213_27)"/>
<path d="M6.40566 269.336H1.0843C0.621311 269.336 0.248535 269.709 0.248535 270.172V321.098C0.248535 321.561 0.621198 321.933 1.0843 321.933H6.40566C6.86866 321.933 7.24143 321.561 7.24143 321.098V270.172C7.24143 269.709 6.86877 269.336 6.40566 269.336Z" fill="#6A5F56"/>
<path d="M6.45301 269.661H1.03701C0.600175 269.661 0.248535 270.014 0.248535 270.451V320.818C0.248535 321.256 0.600024 321.608 1.03701 321.608H6.45301C6.88981 321.608 7.24143 321.256 7.24143 320.818V270.451C7.24143 270.014 6.88996 269.661 6.45301 269.661Z" fill="url(#paint3_linear_3213_27)"/>
<path d="M294.597 0.430664H61.4031C28.7831 0.430664 2.33936 26.8744 2.33936 59.4944V670.505C2.33936 703.125 28.7831 729.569 61.4031 729.569H294.597C327.217 729.569 353.66 703.125 353.66 670.505V59.4944C353.66 26.8744 327.217 0.430664 294.597 0.430664Z" fill="#73675D"/>
<g filter="url(#filter0_f_3213_27)">
<path d="M293.666 2.73145H62.3335C30.2673 2.73145 4.27246 28.7263 4.27246 60.7925V669.208C4.27246 701.274 30.2673 727.269 62.3335 727.269H293.666C325.732 727.269 351.727 701.274 351.727 669.208V60.7925C351.727 28.7263 325.732 2.73145 293.666 2.73145Z" fill="#E3CEBC"/>
</g>
<path d="M273.649 0.431641V77.5234H2.34033V82.4219H353.661V77.5234H278.547V0.431641H273.649ZM2.34033 647.578V652.477H77.4517V729.568H82.3501V652.477H353.661V647.578H2.34033Z" fill="#3D332C" fill-opacity="0.295364"/>
<path d="M292.767 5.08301H63.2332C32.2622 5.08301 7.15527 30.1899 7.15527 61.1609V668.839C7.15527 699.81 32.2622 724.917 63.2332 724.917H292.767C323.738 724.917 348.845 699.81 348.845 668.839V61.1609C348.845 30.1899 323.738 5.08301 292.767 5.08301Z" fill="#111111"/>
<path d="M290.581 8.6582H65.4188C35.8304 8.6582 11.8442 32.6443 11.8442 62.2327V667.768C11.8442 697.356 35.8304 721.342 65.4188 721.342H290.581C320.169 721.342 344.156 697.356 344.156 667.768V62.2327C344.156 32.6443 320.169 8.6582 290.581 8.6582Z" fill="black"/>
<path d="M137.818 5.08301C141.934 5.08301 141.827 6.06459 142.679 7.17838C143.301 7.99074 144.101 8.24951 145.677 8.24951H210.322C211.898 8.24951 212.697 7.99074 213.318 7.17838C214.17 6.06459 214.066 5.08301 218.181 5.08301H137.818Z" fill="url(#paint4_linear_3213_27)"/>
</g>
<defs>
<filter id="filter0_f_3213_27" x="2.93247" y="1.39146" width="350.135" height="727.217" filterUnits="userSpaceOnUse" color-interpolation-filters="sRGB">
<feFlood flood-opacity="0" result="BackgroundImageFix"/>
<feBlend mode="normal" in="SourceGraphic" in2="BackgroundImageFix" result="shape"/>
<feGaussianBlur stdDeviation="0.669995" result="effect1_foregroundBlur_3213_27"/>
</filter>
<linearGradient id="paint0_linear_3213_27" x1="355.752" y1="235.753" x2="355.752" y2="322.063" gradientUnits="userSpaceOnUse">
<stop stop-color="#7C6655"/>
<stop offset="0.124105" stop-color="#F8EADD"/>
<stop offset="0.764916" stop-color="#AA998B"/>
<stop offset="0.985317" stop-color="#817469"/>
<stop offset="1" stop-color="#BCAD9A"/>
</linearGradient>
<linearGradient id="paint1_linear_3213_27" x1="7.24143" y1="198.78" x2="7.24143" y2="250.434" gradientUnits="userSpaceOnUse">
<stop stop-color="#7C6655"/>
<stop offset="0.124105" stop-color="#F8EADD"/>
<stop offset="0.764916" stop-color="#AA998B"/>
<stop offset="0.985317" stop-color="#817469"/>
<stop offset="1" stop-color="#BCAD9A"/>
</linearGradient>
<linearGradient id="paint2_linear_3213_27" x1="7.24143" y1="142.297" x2="7.24143" y2="172.653" gradientUnits="userSpaceOnUse">
<stop stop-color="#7C6655"/>
<stop offset="0.124105" stop-color="#F8EADD"/>
<stop offset="0.764916" stop-color="#AA998B"/>
<stop offset="0.985317" stop-color="#817469"/>
<stop offset="1" stop-color="#BCAD9A"/>
</linearGradient>
<linearGradient id="paint3_linear_3213_27" x1="7.24143" y1="269.792" x2="7.24143" y2="321.446" gradientUnits="userSpaceOnUse">
<stop stop-color="#7C6655"/>
<stop offset="0.124105" stop-color="#F8EADD"/>
<stop offset="0.764916" stop-color="#AA998B"/>
<stop offset="0.985317" stop-color="#817469"/>
<stop offset="1" stop-color="#BCAD9A"/>
</linearGradient>
<linearGradient id="paint4_linear_3213_27" x1="145.735" y1="5.08301" x2="145.735" y2="8.24951" gradientUnits="userSpaceOnUse">
<stop/>
<stop offset="1" stop-color="#212121"/>
</linearGradient>
<clipPath id="clip0_3213_27">
<rect width="356" height="730" fill="white"/>
</clipPath>
</defs>
</svg>
